<svg xmlns="http://www.w3.org/2000/svg" width="1064" height="1267" viewBox="0 0 1064 1267"><g><g><g opacity=".3"><g opacity=".3"><path fill="none" stroke="#fff" stroke-linecap="round" stroke-linejoin="round" stroke-miterlimit="50" stroke-width="2" d="M1008.079 934.448v0L443.182 414.142v0V23.81v0L28.11 1C24.904 8.544 4.367 30.286 7.572 42.404c3.858 14.494 23.267 9.86 28.906 19.187 6.588 10.989-4.749 55.66-8.132 68.55-6.47 24.414-21.25 44.194-25.524 68.609-7.182 40.987 7.36 37.72 34.902 63.323 46.417 43.185 9.2 87.975 20.894 138.704 9.497 41.345 50.987 62.67 66.182 104.012 11.753 31.84 27.897 39.978 52.946 63.264-.593-14.137-13.236-55.838 10.507-52.155 23.564 3.624 14.483 38.433 18.994 52.987 3.798 12.118 30.686 36.354 8.369 47.522-7.42 3.683-28.55-10.99-37.039-14.91 5.995 18.712 2.197 38.136 11.694 56.016 11.337 21.325 23.564 13.128 38.582 24.712 15.491 11.94 13.83 25.661 6.944 43.72-7.182 18.83-14.601 15.92-3.205 38.612 8.25 16.394 22.258 37.185 34.308 49.66 7.004 7.246 14.602 8.91 21.606 18.176 5.817 7.722 3.561 17.821 10.506 24.77 11.871 11.94 31.994 12.119 41.372 27.741 10.447 17.405-1.424 30.533 29.322 28.929 1.603 34.81 8.191 66.352 7.835 101.16 17.154 6.832 44.873-1.306 62.858-4.93 17.867 24.117 40.956 7.366 61.375 20.495 8.904 5.702 7.063 19.959 12.465 24.948 11.1 10.217 19.29 3.802 33.062 7.366 10.209 2.614 18.103 10.099 27.837 12.831 9.2 2.554 24.337-3.445 31.163 4.693 8.19 9.742-5.52 27.562 6.826 35.403 10.268 6.534 24.988-9.03 34.96-6.772 11.634 2.673 44.992 33.147 53.184 43.185 9.319 11.465 18.698 32.85 23.98 47.581 8.25 23.048 7.122 34.334 24.157 51.205 10.862 10.752.534 11.524 18.222 14.672 11.574 2.08 26.888-6.297 38.582-7.603 24.337-2.673 48.91 1.96 72.89-2.614 22.319-4.277 43.627-11.287 66.538-14.554 19.825-2.851 54.727-.653 72.296-10.098 19.053-10.158 20.775-33.147-6.767-28.869-2.196-14.672 7.598-34.929-3.324-45.085 15.196-20.791 20.716-35.463 23.09-60.888 1.068-11.167 1.543-23.523 7.063-32.909 5.401-9.267 20.597-14.791 23.565-22.751 4.57-12.356-2.73-17.88-8.31-24.77-3.562-4.456-13.712-2.317-16.621-6.238-5.401-7.188-.06-14.613-3.027-21.86-8.666-20.969-18.994-29.226-25.524-52.987.179 3.98.357 8.02.12 11.94"/></g></g><g><path fill="none" stroke="#fff" stroke-miterlimit="50" stroke-width="2" d="M729.11 854.94c-8.568 23.381 11.5 31.586 27.56 46.868 4.76 4.528 5.214 12.01.205 16.535-10.773 9.731-51.616-4.426-49.025 8.403 2.676 13.249 37.207 31.786 38.763 33.054 13.667 11.132 18.118 39.375 10.59 54.86-5.355 11.017-40.865 7.303-52.035 3.634-73.148-24.028-40.187-21.162-122.356-28.624-6.29-.57-12.881-.863-18.923.98-6.222 1.9-6.024 9.69-3.936 13.9 6.918 13.957 37.892 37.628 29.556 55.973-2.557 5.63-8.55 9.185-11.249 14.747-2.114 4.358-1.88 9.502-2.82 14.253"/></g><g><path fill="#4af6cd" d="M573.5 1097a6.5 6.5 0 1 0 0-13 6.5 6.5 0 0 0 0 13z"/></g><g><path fill="#4af6cd" d="M661 1134a3 3 0 1 0 0-6 3 3 0 0 0 0 6z"/></g><g><path fill="#4af6cd" d="M725 1242a3 3 0 1 0 0-6 3 3 0 0 0 0 6z"/></g><g><path fill="#4af6cd" d="M365 999a3 3 0 1 0 0-6 3 3 0 0 0 0 6z"/></g><g><path fill="#4af6cd" d="M729.5 862a6.5 6.5 0 1 0 0-13 6.5 6.5 0 0 0 0 13z"/></g><g><g><text fill="#fff" dominant-baseline="text-before-edge" font-family="'Fira Sans','FiraSans-Regular'" font-size="16" transform="translate(384 1078)"><tspan>West Shore </tspan><tspan font-family="'Fira Sans Thin','FiraSans-Thin'">|</tspan><tspan> Malibu, CA</tspan></text></g></g><g><g><text fill="#fff" dominant-baseline="text-before-edge" font-family="'Fira Sans','FiraSans-Regular'" font-size="16" transform="translate(591 843)"><tspan>Current Location</tspan></text></g></g></g></g></svg>