<svg xmlns="http://www.w3.org/2000/svg" width="11" height="13" viewBox="0 0 11 13"><g><g><path fill="#fff" d="M5.433 8.096a2.411 2.411 0 0 1 0-4.823 2.411 2.411 0 0 1 0 4.823zm3.353-6.64A5.374 5.374 0 0 0 5.433.29 5.371 5.371 0 0 0 2.08 1.455 5.358 5.358 0 0 0 .048 5.381 5.4 5.4 0 0 0 1.62 9.493l3.53 3.53c.14.138.38.139.518.002L9.25 9.49a5.401 5.401 0 0 0 1.569-4.109 5.359 5.359 0 0 0-2.033-3.926z"/></g><g><path fill="#fff" d="M5.432 4.51a1.173 1.173 0 1 0 .002 2.346 1.173 1.173 0 0 0-.002-2.346z"/></g></g></svg>