<svg xmlns="http://www.w3.org/2000/svg" width="39" height="40" viewBox="0 0 39 40"><g><g><path fill="#fff" d="M38.038 32.19h-8.287a.484.484 0 0 0 0 .97h8.287a.484.484 0 0 0 0-.97z"/><path fill="none" d="M38.038 32.19h-8.287a.484.484 0 0 0 0 .97h8.287a.484.484 0 0 0 0-.97z"/></g><g><path fill="#fff" d="M38.033 38.34H28.74a.484.484 0 0 0 0 .97h9.292a.484.484 0 0 0 0-.97z"/><path fill="none" d="M38.033 38.34H28.74a.484.484 0 0 0 0 .97h9.292a.484.484 0 0 0 0-.97z"/></g><g><path fill="#fff" d="M.481 35.69h7.493a.484.484 0 0 0 0-.97H.481a.484.484 0 0 0-.481.485c0 .27.216.486.481.486z"/><path fill="none" d="M.481 35.69h7.493a.484.484 0 0 0 0-.97H.481a.484.484 0 0 0-.481.485c0 .27.216.486.481.486z"/></g><g><path fill="#fff" d="M8.242 8.379c.3 0 .596-.025.89-.076a4.256 4.256 0 0 1-3.05 1.274c-2.37 0-4.299-1.936-4.299-4.315 0-1.175.468-2.267 1.273-3.062a5.24 5.24 0 0 0-.075.895C2.979 6.01 5.34 8.38 8.241 8.38zM4.303.623A.478.478 0 0 0 3.748.53 5.258 5.258 0 0 0 .82 5.262c0 2.914 2.36 5.286 5.263 5.286a5.231 5.231 0 0 0 4.711-2.94.488.488 0 0 0-.09-.56.478.478 0 0 0-.555-.093c-.602.3-1.243.453-1.907.453-2.37 0-4.3-1.935-4.3-4.312 0-.666.15-1.308.45-1.911a.49.49 0 0 0-.089-.561z"/><path fill="none" d="M8.242 8.379c.3 0 .596-.025.89-.076a4.256 4.256 0 0 1-3.05 1.274c-2.37 0-4.299-1.936-4.299-4.315 0-1.175.468-2.267 1.273-3.062a5.24 5.24 0 0 0-.075.895C2.979 6.01 5.34 8.38 8.241 8.38zM4.303.623A.478.478 0 0 0 3.748.53 5.258 5.258 0 0 0 .82 5.262c0 2.914 2.36 5.286 5.263 5.286a5.231 5.231 0 0 0 4.711-2.94.488.488 0 0 0-.09-.56.478.478 0 0 0-.555-.093c-.602.3-1.243.453-1.907.453-2.37 0-4.3-1.935-4.3-4.312 0-.666.15-1.308.45-1.911a.49.49 0 0 0-.089-.561z"/></g><g><path fill="#fff" d="M33.852 28.567h-4.22v-3.435a.49.49 0 0 0-.189-.385c-.096-.075-9.663-7.624-9.663-16.56a.484.484 0 0 0-.482-.485.484.484 0 0 0-.481.485c0 8.936-9.568 16.485-9.664 16.56a.484.484 0 0 0-.188.385v3.435H4.713v-4.85l14.57-21.659 14.571 21.658zm-14.358-7.48a.496.496 0 0 0-.741 0c-.408.494-3.99 4.906-3.99 7.166 0 .106.01.21.016.314H9.93v-3.199c.628-.511 2.71-2.285 4.819-4.918 1.711-2.136 3.665-5.155 4.551-8.597.886 3.444 2.84 6.46 4.552 8.597 2.108 2.632 4.19 4.406 4.818 4.918v3.2h-5.204c.008-.105.015-.209.015-.315.002-2.26-3.579-6.671-3.987-7.166zm2.145 9.446c.023-.136.042-.272.042-.416 0-1.226-1.771-3.43-2.127-3.86a.498.498 0 0 0-.742 0c-.354.43-2.127 2.634-2.127 3.86 0 .195.029.382.07.566a3.393 3.393 0 0 1-1.032-2.435c0-1.45 2.194-4.539 3.401-6.075 1.21 1.536 3.402 4.624 3.402 6.075a3.36 3.36 0 0 1-.887 2.286zm-2.403 1.123c-.026.002-.05.004-.075.004a1.533 1.533 0 0 1-1.512-1.529c0-.55.805-1.818 1.53-2.773.727.955 1.532 2.223 1.532 2.773a1.53 1.53 0 0 1-1.475 1.525zm18.806-7.25h-.002a.484.484 0 0 0-.481.484l-.011 2.592L19.68.92c-.178-.267-.617-.267-.797 0L1.029 27.463l.01-2.75a.483.483 0 0 0-.479-.488H.558a.484.484 0 0 0-.481.483L.06 29.05a.486.486 0 0 0 .482.487.485.485 0 0 0 .398-.212l2.81-4.177v3.905c0 .268.216.486.482.486h10.724a4.368 4.368 0 0 0 4.167 3.094l.038-.002.019.002c.019 0 .037-.006.056-.006a4.366 4.366 0 0 0 4.053-3.088h11.045a.484.484 0 0 0 .481-.486v-3.905l2.81 4.177a.477.477 0 0 0 .538.191.485.485 0 0 0 .34-.463l.02-4.159a.482.482 0 0 0-.48-.487z"/><path fill="none" d="M33.852 28.567h-4.22v-3.435a.49.49 0 0 0-.189-.385c-.096-.075-9.663-7.624-9.663-16.56a.484.484 0 0 0-.482-.485.484.484 0 0 0-.481.485c0 8.936-9.568 16.485-9.664 16.56a.484.484 0 0 0-.188.385v3.435H4.713v-4.85l14.57-21.659 14.571 21.658zm-14.358-7.48a.496.496 0 0 0-.741 0c-.408.494-3.99 4.906-3.99 7.166 0 .106.01.21.016.314H9.93v-3.199c.628-.511 2.71-2.285 4.819-4.918 1.711-2.136 3.665-5.155 4.551-8.597.886 3.444 2.84 6.46 4.552 8.597 2.108 2.632 4.19 4.406 4.818 4.918v3.2h-5.204c.008-.105.015-.209.015-.315.002-2.26-3.579-6.671-3.987-7.166zm2.145 9.446c.023-.136.042-.272.042-.416 0-1.226-1.771-3.43-2.127-3.86a.498.498 0 0 0-.742 0c-.354.43-2.127 2.634-2.127 3.86 0 .195.029.382.07.566a3.393 3.393 0 0 1-1.032-2.435c0-1.45 2.194-4.539 3.401-6.075 1.21 1.536 3.402 4.624 3.402 6.075a3.36 3.36 0 0 1-.887 2.286zm-2.403 1.123c-.026.002-.05.004-.075.004a1.533 1.533 0 0 1-1.512-1.529c0-.55.805-1.818 1.53-2.773.727.955 1.532 2.223 1.532 2.773a1.53 1.53 0 0 1-1.475 1.525zm18.806-7.25h-.002a.484.484 0 0 0-.481.484l-.011 2.592L19.68.92c-.178-.267-.617-.267-.797 0L1.029 27.463l.01-2.75a.483.483 0 0 0-.479-.488H.558a.484.484 0 0 0-.481.483L.06 29.05a.486.486 0 0 0 .482.487.485.485 0 0 0 .398-.212l2.81-4.177v3.905c0 .268.216.486.482.486h10.724a4.368 4.368 0 0 0 4.167 3.094l.038-.002.019.002c.019 0 .037-.006.056-.006a4.366 4.366 0 0 0 4.053-3.088h11.045a.484.484 0 0 0 .481-.486v-3.905l2.81 4.177a.477.477 0 0 0 .538.191.485.485 0 0 0 .34-.463l.02-4.159a.482.482 0 0 0-.48-.487z"/></g></g></svg>