<svg xmlns="http://www.w3.org/2000/svg" width="17" height="45" viewBox="0 0 17 45"><g><g><path fill="#fff" d="M10.294 43.117h-.96v-4.865h-1.39v4.865h-.96c-.624-1.29-2.687-5.906-3.824-12.573 1.064 1.63 2.675 3.37 5.125 4.83 2.694 1.606 3.343 3.62 3.479 4.198a37.891 37.891 0 0 1-1.47 3.545zM2.412 22.694c.993 1.845 2.755 3.951 5.883 5.74 4.462 2.55 5.212 5.072 5.226 5.117a52.633 52.633 0 0 1-1.087 4.023c-.585-1.037-1.616-2.31-3.437-3.396-5.485-3.266-6.35-8.004-6.472-8.958a51.347 51.347 0 0 1-.113-2.526zm5.533-19.41zm0 21.775h1.389V3.284c1.777 1.587 5.555 7.362 5.555 18.301 0 3.65-.384 6.982-.93 9.891-.804-1.145-2.282-2.702-4.974-4.241-6.547-3.743-6.467-8.882-6.462-9.099h-.002c.683-8.72 3.844-13.44 5.424-14.852zM8.639 1.44zM1 21.579C1 34.796 5.743 43.756 5.944 44.13l.197.364h4.996l.196-.364c.202-.375 4.945-9.335 4.945-22.552 0-13.082-5.422-20.138-7.64-20.139C6.423 1.44 1 8.498 1 21.579z"/><path fill="none" stroke="#000" stroke-miterlimit="50" stroke-width=".25" d="M10.294 43.117h-.96v-4.865h-1.39v4.865h-.96c-.624-1.29-2.687-5.906-3.824-12.573 1.064 1.63 2.675 3.37 5.125 4.83 2.694 1.606 3.343 3.62 3.479 4.198a37.891 37.891 0 0 1-1.47 3.545zM2.412 22.694s0 0 0 0c.993 1.845 2.755 3.951 5.883 5.74 4.462 2.55 5.212 5.072 5.226 5.117a52.633 52.633 0 0 1-1.087 4.023c-.585-1.037-1.616-2.31-3.437-3.396-5.485-3.266-6.35-8.004-6.472-8.958a51.347 51.347 0 0 1-.113-2.526s0 0 0 0zm5.533-19.41s0 0 0 0h0zm0 21.775h1.389V3.284c1.777 1.587 5.555 7.362 5.555 18.301 0 3.65-.384 6.982-.93 9.891-.804-1.145-2.282-2.702-4.974-4.241-6.547-3.743-6.467-8.882-6.462-9.099h-.002c.683-8.72 3.844-13.44 5.424-14.852zM8.639 1.44s0 0 0 0 0 0 0 0zM1 21.579C1 34.796 5.743 43.756 5.944 44.13l.197.364h4.996l.196-.364c.202-.375 4.945-9.335 4.945-22.552 0-13.082-5.422-20.138-7.64-20.139C6.423 1.44 1 8.498 1 21.579z"/></g></g></svg>