<svg xmlns="http://www.w3.org/2000/svg" width="52" height="33" viewBox="0 0 52 33"><g><g><path fill="#fff" d="M43.186 26.982c-.361-2.24-2.322-3.959-4.685-3.959-2.364 0-4.323 1.719-4.686 3.959H16.436c-.361-2.24-2.322-3.959-4.685-3.959-2.364 0-4.323 1.719-4.686 3.959H2.751v-.495h3v-1.485h-1v-6.927h7.535v-1.484H4.75v-2.72c0-2.591 2.13-4.702 4.751-4.702h25.496c2.204 0 4.284.54 6.114 1.484H36c-.964 0-1.75.777-1.75 1.732v3.959c0 .954.786 1.731 1.75 1.731h11.547c.454 1.322.704 2.735.704 4.208v2.72h-3.5v1.484h4.5v.495zm-4.685 3.958c-1.793 0-3.25-1.442-3.25-3.216 0-1.774 1.457-3.216 3.25-3.216s3.25 1.442 3.25 3.216c0 1.774-1.457 3.216-3.25 3.216zm-26.75 0c-1.793 0-3.25-1.442-3.25-3.216 0-1.774 1.457-3.216 3.25-3.216S15 25.95 15 27.724c0 1.774-1.457 3.216-3.25 3.216zm5.021-25.1c3.01.238 6.186.36 9.229.36.763 0 1.513-.006 2.25-.015v1.5H16.772zm5.982-2.093c1.47 0 2.914-.005 4.302-.01 1.285-.005 2.52-.009 3.688-.009l6.438.006h.002c1.726 0 3.192-.006 4.55-.021-3.982.64-9.467 1.003-15.738 1.003-6.824 0-12.625-.534-16.659-1.288 4.2.27 8.98.32 13.418.32zm21.997 1.976a.232.232 0 0 1-.139.224.23.23 0 0 1-.262-.023l-1.258-.93c.59-.112 1.143-.233 1.659-.36zM36 16.591a.253.253 0 0 1-.25-.248v-3.958c0-.134.115-.248.25-.248h7.379a13.23 13.23 0 0 1 3.553 4.454zm13.75 8.436v-2.746c0-1.461-.221-2.874-.627-4.208h.043l-.3-.767c-.025-.07-.054-.137-.08-.209l-.013-.033-.006-.011a14.659 14.659 0 0 0-4.66-6.241l-.205-.159a14.773 14.773 0 0 0-8.905-2.968l-5.248.001V6.16c4.387-.1 8.203-.383 11.285-.828l2.42 1.777c.313.23.674.345 1.037.345.268 0 .538-.063.793-.19a1.7 1.7 0 0 0 .963-1.549V4.213c.74-.24 1.366-.498 1.868-.777a.74.74 0 0 0 .353-.852.758.758 0 0 0-.758-.537c-3.48.168-6.164.197-10.521.197h-.002l-6.438-.002c-1.17 0-2.408.006-3.695.01-1.387.005-2.83.01-4.299.01-6.91 0-14.648-.119-19.625-1a.752.752 0 0 0-.797.386.733.733 0 0 0 .135.868c1.56 1.545 6.717 2.617 12.802 3.191v1.974l-5.769.003c-3.447 0-6.252 2.776-6.252 6.187v11.131h-.748c-.69 0-1.252.555-1.252 1.24v.987c0 .682.56 1.239 1.252 1.239l.748-.002h3.814c.362 2.238 2.323 3.958 4.686 3.958s4.322-1.718 4.686-3.958h17.38c.362 2.24 2.32 3.958 4.684 3.958 2.363 0 4.322-1.718 4.686-3.958h6.564v-.025c.57-.116 1-.615 1-1.214v-.988c0-.595-.43-1.096-1-1.212z"/><path fill="none" stroke="#222532" stroke-miterlimit="50" stroke-width=".6" d="M43.186 26.982c-.361-2.24-2.322-3.959-4.685-3.959-2.364 0-4.323 1.719-4.686 3.959H16.436c-.361-2.24-2.322-3.959-4.685-3.959-2.364 0-4.323 1.719-4.686 3.959H2.751v-.495h3v-1.485h-1v-6.927h7.535v-1.484H4.75v-2.72c0-2.591 2.13-4.702 4.751-4.702h25.496c2.204 0 4.284.54 6.114 1.484H36c-.964 0-1.75.777-1.75 1.732v3.959c0 .954.786 1.731 1.75 1.731h11.547c.454 1.322.704 2.735.704 4.208v2.72h-3.5v1.484h4.5v.495zm-4.685 3.958c-1.793 0-3.25-1.442-3.25-3.216 0-1.774 1.457-3.216 3.25-3.216s3.25 1.442 3.25 3.216c0 1.774-1.457 3.216-3.25 3.216zm-26.75 0c-1.793 0-3.25-1.442-3.25-3.216 0-1.774 1.457-3.216 3.25-3.216S15 25.95 15 27.724c0 1.774-1.457 3.216-3.25 3.216zm5.021-25.1c3.01.238 6.186.36 9.229.36.763 0 1.513-.006 2.25-.015v1.5H16.772zm5.982-2.093c1.47 0 2.914-.005 4.302-.01 1.285-.005 2.52-.009 3.688-.009l6.438.006h.002c1.726 0 3.192-.006 4.55-.021-3.982.64-9.467 1.003-15.738 1.003-6.824 0-12.625-.534-16.659-1.288 4.2.27 8.98.32 13.418.32zm21.997 1.976a.232.232 0 0 1-.139.224.23.23 0 0 1-.262-.023l-1.258-.93c.59-.112 1.143-.233 1.659-.36zM36 16.591a.253.253 0 0 1-.25-.248v-3.958c0-.134.115-.248.25-.248h7.379a13.23 13.23 0 0 1 3.553 4.454zm13.75 8.436v-2.746c0-1.461-.221-2.874-.627-4.208h.043l-.3-.767c-.025-.07-.054-.137-.08-.209l-.013-.033-.006-.011a14.659 14.659 0 0 0-4.66-6.241l-.205-.159a14.773 14.773 0 0 0-8.905-2.968l-5.248.001V6.16c4.387-.1 8.203-.383 11.285-.828l2.42 1.777c.313.23.674.345 1.037.345.268 0 .538-.063.793-.19a1.7 1.7 0 0 0 .963-1.549V4.213c.74-.24 1.366-.498 1.868-.777a.74.74 0 0 0 .353-.852.758.758 0 0 0-.758-.537c-3.48.168-6.164.197-10.521.197h-.002l-6.438-.002c-1.17 0-2.408.006-3.695.01-1.387.005-2.83.01-4.299.01-6.91 0-14.648-.119-19.625-1a.752.752 0 0 0-.797.386.733.733 0 0 0 .135.868c1.56 1.545 6.717 2.617 12.802 3.191v1.974l-5.769.003c-3.447 0-6.252 2.776-6.252 6.187v11.131h-.748c-.69 0-1.252.555-1.252 1.24v.987c0 .682.56 1.239 1.252 1.239l.748-.002h3.814c.362 2.238 2.323 3.958 4.686 3.958s4.322-1.718 4.686-3.958h17.38c.362 2.24 2.32 3.958 4.684 3.958 2.363 0 4.322-1.718 4.686-3.958h6.564v-.025c.57-.116 1-.615 1-1.214v-.988c0-.595-.43-1.096-1-1.212z"/></g></g></svg>