<svg xmlns="http://www.w3.org/2000/svg" width="44" height="45" viewBox="0 0 44 45"><defs><mask id="hvc1b" width="2" height="2" x="-1" y="-1"><path fill="#fff" d="M11 11h22v22H11z"/><path d="M21.955 11l3.195 7.59 7.85.864-5.934 5.476L28.801 33l-6.847-4.227L15.2 33l1.735-8.07L11 19.454l7.85-.864z"/></mask><filter id="hvc1a" width="74" height="74" x="-15" y="-15" filterUnits="userSpaceOnUse"><feOffset in="SourceGraphic" result="FeOffset1043Out"/><feGaussianBlur in="FeOffset1043Out" result="FeGaussianBlur1044Out" stdDeviation="6.4 6.4"/></filter></defs><g><g><g filter="url(#hvc1a)"><path fill="none" d="M21.955 11l3.195 7.59 7.85.864-5.934 5.476L28.801 33l-6.847-4.227L15.2 33l1.735-8.07L11 19.454l7.85-.864z" mask="url(&quot;#hvc1b&quot;)"/><path fill="#4af6cd" fill-opacity=".54" d="M21.955 11l3.195 7.59 7.85.864-5.934 5.476L28.801 33l-6.847-4.227L15.2 33l1.735-8.07L11 19.454l7.85-.864z"/></g><path fill="#4af6cd" d="M21.955 11l3.195 7.59 7.85.864-5.934 5.476L28.801 33l-6.847-4.227L15.2 33l1.735-8.07L11 19.454l7.85-.864z"/></g></g></svg>