<svg xmlns="http://www.w3.org/2000/svg" width="40" height="25" viewBox="0 0 40 25"><g><g><path fill="#4af6cd" d="M26.361 4.752l.263-.236c.174-.154.344-.312.51-.469.161-.166.353-.276.52-.417.173-.135.34-.274.51-.399.35-.224.676-.472 1.006-.661.331-.185.639-.388.945-.526l.433-.224c.143-.063.28-.125.41-.181.52-.241.95-.388 1.246-.496l.457-.146.015-.005a.18.18 0 0 0 .116-.116.181.181 0 0 0-.116-.226s-.18-.057-.509-.117c-.164-.026-.372-.066-.613-.081-.243-.02-.525-.05-.84-.04-.157.002-.325-.002-.5.008a51.35 51.35 0 0 0-.547.05c-.385.027-.79.115-1.23.205-.224.036-.442.106-.67.176l-.706.22c-.462.194-.967.387-1.46.65-.242.135-.491.277-.742.428l-.381.228-.362.264c-.241.185-.487.37-.739.56-.259.183-.465.42-.703.638-.23.227-.465.454-.701.685-.211.251-.422.507-.63.772-.205.266-.427.528-.617.81-.18.288-.352.586-.53.883-.168.305-.356.595-.505.918-.147.329-.283.665-.42 1.002a35.85 35.85 0 0 0-.405 1.016l-.267.954-.27.96-.15.53-.119.437c-.042.146-.075.294-.121.438l-.158.424-.158.427c-.055.142-.125.275-.186.414a12.42 12.42 0 0 1-1.975 3.037 14.841 14.841 0 0 1-2.693 2.38c-.976.677-2.008 1.22-3.022 1.678a23.324 23.324 0 0 1-2.967 1.082 30.142 30.142 0 0 1-4.696.962c-1.158.145-1.823.155-1.823.155a.175.175 0 0 0-.17.151.174.174 0 0 0 .152.195h.003s.68.086 1.87.111c.595.013 1.32.007 2.153-.045a26.617 26.617 0 0 0 2.79-.306c2.032-.342 4.422-.962 6.776-2.242 1.173-.637 2.337-1.436 3.374-2.434a15.047 15.047 0 0 0 2.695-3.444c.091-.161.19-.317.275-.482l.245-.495c.164-.331.324-.665.457-1.006l.21-.51.05-.128.027-.063.007-.017c.022-.065-.023.07-.016.052l.011-.029.098-.23.396-.917.394-.909c.148-.252.284-.505.419-.756.134-.251.27-.499.392-.751.138-.248.302-.487.447-.73.145-.244.29-.486.424-.73.15-.233.314-.449.464-.673.156-.221.296-.45.447-.668l.485-.607c.08-.101.158-.201.238-.3.076-.104.155-.204.243-.288.17-.182.339-.36.505-.536l.24-.264z"/></g><g><path fill="#4af6cd" d="M29.318 15.979l.002.001.005.009-.02-.047-.247-.544c-.075-.176-.184-.375-.208-.518-.08-.314-.194-.592-.24-.918a9.86 9.86 0 0 0-.1-.462l-.044-.447c-.01-.073-.024-.146-.028-.218.004-.071.002-.141.002-.21.005-.139-.018-.283-.007-.416.019-.132.025-.265.035-.396-.002-.135.048-.25.068-.376.107-.49.296-.942.572-1.303.118-.203.29-.34.432-.512.167-.131.323-.286.496-.389.174-.096.335-.226.508-.279.168-.068.33-.165.484-.19.153-.036.298-.083.424-.118.126-.014.238-.026.329-.043l.29-.043.017-.003a.122.122 0 0 0 .09-.062.125.125 0 0 0-.045-.171s-.091-.052-.274-.143a6.647 6.647 0 0 0-.349-.161 6.89 6.89 0 0 0-.507-.13 3.723 3.723 0 0 0-1.464.005c-.15.015-.29.067-.438.116-.147.052-.305.099-.458.167-.29.161-.625.309-.903.56-.31.221-.562.522-.83.836-.122.163-.22.346-.333.527-.052.091-.115.183-.158.28l-.12.298c-.07.203-.178.41-.216.625-.045.216-.095.436-.131.66-.035.223-.029.447-.039.675l-.003.343c.007.113.027.222.038.335.037.223.072.447.108.674.055.217.13.43.2.644.114.433.362.853.563 1.27.105.23.216.361.324.536l.326.5.042.063.005.008.03.051.003.004.013.017.025.032.103.13.201.259.404.516c.291.321.592.629.885.938.317.278.633.557.947.831.333.25.655.5.984.733.34.215.672.427 1 .637l.993.557c.33.164.657.324.973.48l.935.409c.305.126.602.238.885.349 1.14.427 2.106.721 2.79.893.684.174 1.081.25 1.081.25a.125.125 0 0 0 .138-.076c.025-.06-.008-.13-.071-.153 0 0-.371-.138-1.008-.422-.317-.141-.7-.317-1.135-.529-.434-.209-.918-.458-1.435-.744-.256-.148-.525-.296-.798-.46l-.832-.518c-.278-.186-.564-.379-.855-.577l-.86-.636-.842-.7-.813-.756-.758-.818c-.222-.291-.445-.584-.67-.876l-.28-.466-.14-.229-.068-.116-.004-.007-.003-.005-.007-.016zm.011.017l-.002-.002-.002-.005a.221.221 0 0 0 .004.007z"/></g><g><path fill="#4af6cd" d="M31.491 2.855c-.78.162-1.274.366-1.274.366a.09.09 0 0 0-.057.082.086.086 0 0 0 .086.088c.002 0 .517.003 1.277.091.38.037.815.113 1.273.193.457.103.941.196 1.405.342.116.04.233.072.346.115l.33.146c.22.095.426.2.634.271.21.063.415.118.616.155l.584.093c.184.028.364.038.527.046.158.017.304.027.429.027.25.005.417-.013.417-.013l.007-.002.023-.005a.11.11 0 0 0 .065-.14s-.055-.15-.19-.374a3.52 3.52 0 0 0-.267-.385 3.626 3.626 0 0 0-.416-.416 3.773 3.773 0 0 0-.26-.212c-.096-.06-.192-.128-.299-.187a2.603 2.603 0 0 0-.69-.31 3.202 3.202 0 0 0-.796-.128c-.274-.025-.55-.037-.824-.05-.273-.025-.545-.022-.811-.027-.266-.007-.529.02-.78.033-.252.03-.492.044-.72.085-.226.038-.438.075-.634.116z"/></g><g><path fill="#4af6cd" d="M37.11 9.007c.167.075.296.158.426.218.238.133.404.213.404.213l.01.005c.013.006.028.01.045.01a.1.1 0 0 0 .096-.102l-.003-.128c-.005-.083-.01-.207-.043-.359-.037-.148-.082-.335-.173-.528a3.075 3.075 0 0 0-.358-.625 6 6 0 0 0-.257-.318c-.098-.098-.196-.208-.308-.304a3.58 3.58 0 0 0-.753-.525 4.275 4.275 0 0 0-.904-.326c-.314-.085-.632-.151-.944-.224a12.706 12.706 0 0 0-1.837-.293 15.376 15.376 0 0 0-1.599-.06c-.932.012-1.546.105-1.546.105a.09.09 0 0 0-.075.07.088.088 0 0 0 .07.103s.6.114 1.476.345c.437.114.941.261 1.47.436.264.085.532.188.804.284.27.1.54.21.803.328.263.12.517.256.751.405.238.148.46.3.682.422.223.122.437.228.651.321l.596.278c.189.09.364.174.516.25z"/></g><g><path fill="#4af6cd" d="M36.182 11.09a2.32 2.32 0 0 0-.253-.385 1.62 1.62 0 0 0-.364-.341c-.14-.1-.309-.16-.477-.224-.17-.057-.34-.112-.505-.173a7.088 7.088 0 0 0-.98-.275 7.545 7.545 0 0 0-.867-.128c-.505-.051-.848-.03-.848-.03a.076.076 0 0 0-.061.042.072.072 0 0 0 .035.096s.3.142.733.368c.214.118.458.26.714.414.125.08.255.161.384.242.132.08.256.173.383.26.121.093.237.194.344.299.1.111.208.208.31.29.102.084.225.139.335.195.108.058.226.1.334.143.103.045.21.082.312.112.103.03.185.064.266.086.16.048.276.068.276.068l.005.002a.096.096 0 0 0 .112-.077s.02-.11.008-.29a1.548 1.548 0 0 0-.05-.32 2.532 2.532 0 0 0-.146-.374z"/></g></g></svg>