<svg xmlns="http://www.w3.org/2000/svg" viewBox="0 0 25 21" width="25" height="21">
	<style>
		tspan { white-space:pre }
		.shp0 { fill: #2aacc8 } 
	</style>
	<g id="clients">
		<path id="clients" class="shp0" d="M18.82 15.01L17.27 15.01L14.12 12.15C16.01 11.53 17.13 10.57 17.66 9.99L17.66 9.37C17.01 9.49 15.53 8.98 16.15 8.68C16.46 8.52 16.64 8.23 16.75 7.95C16.69 7.78 16.65 7.59 16.64 7.4L16.63 7.13C16.59 7.14 16.55 7.15 16.51 7.15C16.3 7.15 16.12 6.98 16.12 6.76L16.12 5.97C16.12 5.76 16.3 5.58 16.51 5.58C16.52 5.58 16.53 5.59 16.54 5.59L16.51 5.08C16.44 3.68 17.47 2.47 18.83 2.47C20.18 2.47 21.21 3.68 21.14 5.08L21.11 5.59C21.12 5.59 21.13 5.58 21.14 5.58C21.35 5.58 21.53 5.76 21.53 5.97L21.53 6.76C21.53 6.98 21.35 7.15 21.14 7.15C21.1 7.15 21.06 7.14 21.02 7.13L21.01 7.4C20.99 7.62 20.94 7.82 20.87 8.02C20.98 8.28 21.15 8.53 21.44 8.68C22.04 8.97 20.67 9.46 19.99 9.38L19.99 9.99C20.55 10.6 21.75 11.64 23.84 12.26C23.84 12.26 25 13.17 25 14.09L25 15.01L18.82 15.01ZM14.95 8.46C14.89 8.46 14.82 8.44 14.76 8.42L14.74 8.85C14.67 10.03 14.01 11.04 13.06 11.62L13.06 12.99C13.98 13.96 15.96 15.61 19.4 16.6C19.4 16.6 21.3 18.07 21.3 19.53L21.3 20.99L11.15 20.99L1 20.99L1 19.53C1 18.07 2.9 16.6 2.9 16.6C6.34 15.61 8.32 13.96 9.24 12.99L9.24 11.62C8.29 11.04 7.62 10.03 7.56 8.85L7.53 8.42C7.47 8.44 7.41 8.46 7.34 8.46C6.99 8.46 6.71 8.18 6.71 7.83L6.71 6.58C6.71 6.23 6.99 5.95 7.34 5.95C7.36 5.95 7.38 5.96 7.4 5.96L7.35 5.15C7.22 2.92 8.92 0.99 11.15 0.99C13.38 0.99 15.08 2.92 14.95 5.15L14.9 5.96C14.92 5.96 14.94 5.95 14.95 5.95C15.31 5.95 15.59 6.23 15.59 6.58L15.59 7.83C15.59 8.18 15.31 8.46 14.95 8.46Z" />
	</g>
</svg>