<svg xmlns="http://www.w3.org/2000/svg" viewBox="0 0 25 24" width="25" height="24">
	<style>
		tspan { white-space:pre }
		.shp0 { fill: #2aacc8 } 
	</style>
	<g id="testimonials">
		<path id="comments" class="shp0" d="M17.67 17.68L10 24L11.73 18.31C5.7 17.85 1 14.16 1 9.68C1 4.89 6.37 1 13 1C19.63 1 25 4.89 25 9.68C25 13.28 21.98 16.36 17.67 17.68ZM13 2.81C7.76 2.81 3.51 5.89 3.51 9.68C3.51 13.47 7.76 16.55 13 16.55C18.24 16.55 22.49 13.47 22.49 9.68C22.49 5.89 18.24 2.81 13 2.81ZM8.5 9.16L17.5 9.16L17.5 10.65L8.5 10.65L8.5 9.16ZM8.5 6.19L17.5 6.19L17.5 7.68L8.5 7.68L8.5 6.19ZM15.26 13.61L10.76 13.61L10.76 12.13L15.26 12.13L15.26 13.61Z" />
	</g>
</svg>