<svg xmlns="http://www.w3.org/2000/svg" viewBox="0 0 21 18" width="21" height="18">
	<style>
		tspan { white-space:pre }
		.shp0 { fill: #ffffff } 
	</style>
	<g id="middle section">
		<g id="text box 2">
			<path id="fullscreen" class="shp0" d="M16.62 17.99L16.62 16.67L19.51 16.67L19.51 13.95L20.99 13.95L20.99 17.99L16.62 17.99ZM19.51 2.31L16.62 2.31L16.62 1L20.99 1L20.99 5.03L19.51 5.03L19.51 2.31ZM1.49 5.03L0.01 5.03L0.01 1L4.37 1L4.37 2.31L1.49 2.31L1.49 5.03ZM2.89 3.71L18.11 3.71L18.11 15.27L2.89 15.27L2.89 3.71ZM4.37 13.95L16.62 13.95L16.62 5.03L4.37 5.03L4.37 13.95ZM5.82 6.43L15.23 6.43L15.23 12.55L5.82 12.55L5.82 6.43ZM1.49 16.67L4.37 16.67L4.37 17.99L0.01 17.99L0.01 13.95L1.49 13.95L1.49 16.67Z" />
		</g>
	</g>
</svg>